<?xml version="1.0" encoding="utf-8"?>
<!-- Generator: Adobe Illustrator 23.0.3, SVG Export Plug-In . SVG Version: 6.00 Build 0)  -->
<svg version="1.1" id="Layer_1" xmlns="http://www.w3.org/2000/svg" xmlns:xlink="http://www.w3.org/1999/xlink" x="0px" y="0px"
	 viewBox="0 0 67 50" style="enable-background:new 0 0 67 50;" xml:space="preserve">
<style type="text/css">
	.st0{fill:#4A6DA7;}
	.st1{fill:#FFFFFF;}
</style>
<title>jworgSiteLogo-smallMQ</title>
<path class="st0" d="M63.6,39.4C63,38,61.9,37,60.6,36.4c-1.4-0.6-2.9-0.6-4.3,0C55,37,54,38,53.4,39.4c-0.6,1.4-0.6,2.9,0,4.3
	c0.3,0.7,0.7,1.2,1.2,1.8c0.5,0.5,1.1,0.9,1.7,1.2c1.4,0.6,2.9,0.6,4.3,0c0.7-0.3,1.2-0.7,1.8-1.2c0.5-0.5,0.9-1.1,1.2-1.8
	C64.1,42.3,64.1,40.7,63.6,39.4z M62.9,43.4c-0.5,1.1-1.4,2-2.5,2.5c-0.6,0.2-1.2,0.4-1.8,0.4c-0.6,0-1.3-0.1-1.8-0.4
	c-0.6-0.2-1.1-0.6-1.5-1c-0.4-0.4-0.8-0.9-1-1.5c-0.5-1.2-0.5-2.5,0-3.7c0.2-0.6,0.6-1.1,1-1.5c0.4-0.4,0.9-0.8,1.5-1
	c0.6-0.2,1.2-0.4,1.8-0.4c0.6,0,1.3,0.1,1.8,0.4c0.6,0.2,1.1,0.6,1.5,1c0.4,0.4,0.8,0.9,1,1.5C63.3,40.9,63.3,42.2,62.9,43.4
	L62.9,43.4z"/>
<path class="st0" d="M59.5,42.1c0.3-0.1,0.6-0.3,0.8-0.5c0.2-0.3,0.4-0.7,0.3-1.1c0-0.3-0.1-0.5-0.2-0.8c-0.1-0.2-0.3-0.4-0.5-0.6
	c-0.2-0.1-0.4-0.3-0.7-0.3c-0.3-0.1-0.5-0.1-0.8-0.1h-2.1v5.7h1.1v-2.1h0.9l1.7,2.1h1.4L59.5,42.1z M59.2,41
	c-0.2,0.1-0.5,0.2-0.8,0.2h-0.9v-1.5h0.9c0.3,0,0.5,0.1,0.8,0.2c0.2,0.1,0.3,0.3,0.3,0.6C59.5,40.7,59.4,40.9,59.2,41z"/>
<rect class="st0" width="50" height="50"/>
<path class="st1" d="M14.2,25.7c1.4,0.1,2.7-0.4,3.6-1.5c0.8-1.2,1.2-2.6,1.1-4V8.3h-2.2v11.9c0,0.9-0.2,1.8-0.7,2.5
	c-0.5,0.6-1.2,1-2,0.9c-0.6,0-1.2-0.1-1.7-0.4c-0.6-0.3-1.1-0.6-1.6-1l-0.9,1.8c0.6,0.5,1.2,0.8,1.9,1.1
	C12.4,25.5,13.3,25.7,14.2,25.7"/>
<path class="st1" d="M25,25.5h1.9L31,12.6l3.6,12.9h1.9l4.2-17.2h-2.3c0,0-2.7,12.4-2.9,13.1L31.9,8.9H30l-3.8,12.4L23.5,8.3h-2.4
	L25,25.5z"/>
<path class="st1" d="M19.8,33.1c-0.2-0.7-0.6-1.3-1-1.9c-0.4-0.5-1-1-1.6-1.3c-0.6-0.3-1.3-0.4-2-0.4c-0.7,0-1.5,0.1-2.1,0.4
	c-0.6,0.3-1.2,0.7-1.6,1.2c-0.5,0.6-0.8,1.2-1,1.9c-0.3,0.8-0.4,1.7-0.4,2.5c0,0.8,0.1,1.7,0.3,2.5c0.2,0.7,0.5,1.3,1,1.9
	c0.4,0.5,1,1,1.6,1.2c0.7,0.3,1.4,0.5,2.2,0.5c0.7,0,1.4-0.1,2.1-0.5c0.6-0.3,1.1-0.7,1.6-1.2c0.5-0.6,0.8-1.2,1-1.9
	c0.2-0.8,0.4-1.6,0.4-2.5C20.1,34.8,20,33.9,19.8,33.1z M18.5,37.6c-0.2,0.6-0.4,1.1-0.8,1.6c-0.3,0.4-0.7,0.8-1.2,1
	c-0.5,0.2-1,0.4-1.5,0.4c-0.5,0-1.1-0.1-1.5-0.4c-0.5-0.2-0.9-0.6-1.2-1c-0.3-0.5-0.6-1-0.8-1.6c-0.4-1.3-0.4-2.7,0-4
	c0.2-0.6,0.4-1.1,0.8-1.5c0.3-0.4,0.7-0.8,1.2-1c1-0.5,2.1-0.5,3.1,0c0.5,0.2,0.9,0.6,1.2,1c0.3,0.5,0.6,1,0.8,1.5
	C18.9,34.9,18.9,36.3,18.5,37.6L18.5,37.6z"/>
<path class="st1" d="M27.2,36.4l0.2,0c0.4-0.1,0.7-0.2,1.1-0.4c0.3-0.2,0.6-0.4,0.9-0.7c0.2-0.3,0.4-0.6,0.6-0.9
	c0.1-0.4,0.2-0.8,0.2-1.2c0-0.5-0.1-1.1-0.3-1.5c-0.2-0.4-0.5-0.8-0.9-1c-0.4-0.3-0.8-0.5-1.3-0.6c-0.5-0.1-1-0.2-1.5-0.2h-3.8v11.7
	h1.2v-4.9h2.4l3.1,4.9h1.5L27.2,36.4z M23.5,35.5v-4.6H26c0.7,0,1.4,0.2,2,0.6c0.5,0.4,0.8,1.1,0.8,1.8c0,0.7-0.3,1.3-0.8,1.7
	c-0.6,0.4-1.4,0.6-2.1,0.6H23.5z"/>
<path class="st1" d="M38.1,41.5c0.3-0.1,0.7-0.2,1-0.3c0.3-0.1,0.6-0.3,0.8-0.5c0.2-0.2,0.4-0.3,0.6-0.5v-5h-4v1.1h2.8v3.4v0
	c-0.3,0.2-0.6,0.4-0.9,0.5c-0.4,0.2-0.9,0.3-1.4,0.3c-0.5,0-1.1-0.1-1.6-0.4c-0.5-0.2-0.9-0.6-1.3-1c-0.4-0.5-0.7-1-0.8-1.6
	c-0.2-0.6-0.3-1.3-0.3-2c0-0.7,0.1-1.4,0.3-2c0.2-0.6,0.5-1.1,0.8-1.6c0.3-0.4,0.8-0.8,1.2-1c0.5-0.2,1-0.4,1.5-0.4
	c0.6,0,1.1,0.1,1.7,0.4c0.4,0.2,0.8,0.5,1.2,0.8l0.7-1c-0.5-0.4-1-0.7-1.6-0.9c-0.6-0.2-1.3-0.4-2-0.3c-1.4,0-2.8,0.6-3.8,1.7
	c-0.5,0.6-0.8,1.2-1.1,1.9c-0.3,0.8-0.4,1.6-0.4,2.4c0,0.8,0.1,1.7,0.4,2.5c0.2,0.7,0.6,1.3,1,1.9c0.5,0.5,1,0.9,1.7,1.2
	c0.7,0.3,1.4,0.4,2.2,0.4C37.2,41.7,37.7,41.6,38.1,41.5z"/>
<rect x="7.4" y="39.8" class="st1" width="1.8" height="1.8"/>
</svg>
